GRF
version=1
nRows=15
nColumns=19
inDegrees=no
endheader
time	ground_force_vx	ground_force_vy	ground_force_vz	ground_force_px	ground_force_py	ground_force_pz	ground_torque_x	ground_torque_y	ground_torque_z	1_ground_force_vx	1_ground_force_vy	1_ground_force_vz	1_ground_force_px	1_ground_force_py	1_ground_force_pz	1_ground_torque_x	1_ground_torque_y	1_ground_torque_z
      1.75000000	    -80.99865749	    725.68733308	     18.42324713	      0.17375204	     -0.00000000	     -0.02179308	     -0.00000000	     -0.47827355	      0.00000000	      0.00000017	      0.00037796	      0.00006838	     -0.15200357	      0.00000000	      0.22355051	     -0.00000000	     -1.59744045	      0.00000000
      1.75100000	    -80.92347837	    725.50138522	     18.69292396	      0.17370230	     -0.00000000	     -0.02227061	     -0.00000000	     -0.49747021	      0.00000000	      0.00000031	      0.00045951	      0.00008449	     -0.15193162	      0.00000000	      0.22396837	     -0.00000000	     -1.59721968	      0.00000000
      1.75200000	    -80.84870855	    725.29862931	     18.96147604	      0.17365263	     -0.00000000	     -0.02274754	     -0.00000000	     -0.51615525	      0.00000000	      0.00000051	      0.00055763	      0.00010417	     -0.15185969	      0.00000000	      0.22438625	     -0.00000000	     -1.59699946	      0.00000000
      1.75300000	    -80.77442379	    725.07922818	     19.22875855	      0.17360304	     -0.00000000	     -0.02322377	     -0.00000000	     -0.53429601	      0.00000000	      0.00000078	      0.00067548	      0.00012819	     -0.15178777	      0.00000000	      0.22480415	     -0.00000000	     -1.59677989	      0.00000000
      1.75400000	    -80.70067767	    724.84334967	     19.49463827	      0.17355353	     -0.00000000	     -0.02369924	     -0.00000000	     -0.55186682	      0.00000000	      0.00000116	      0.00081677	      0.00015741	     -0.15171588	      0.00000000	      0.22522208	     -0.00000000	     -1.59656109	      0.00000000
      1.75500000	    -80.62750139	    724.59116588	     19.75899395	      0.17350411	     -0.00000000	     -0.02417388	     -0.00000000	     -0.56884913	      0.00000000	      0.00000166	      0.00098583	      0.00019289	     -0.15164401	      0.00000000	      0.22564004	     -0.00000000	     -1.59634319	      0.00000000
      1.75600000	    -80.55490395	    724.32285242	     20.02171658	      0.17345479	     -0.00000000	     -0.02464766	     -0.00000000	     -0.58523144	      0.00000000	      0.00000234	      0.00118775	      0.00023589	     -0.15157217	      0.00000000	      0.22605802	     -0.00000000	     -1.59612633	      0.00000000
      1.75700000	    -80.48287261	    724.03858773	     20.28270948	      0.17340559	     -0.00000000	     -0.02512056	     -0.00000000	     -0.60100917	      0.00000000	      0.00000324	      0.00142846	      0.00028789	     -0.15150037	      0.00000000	      0.22647605	     -0.00000000	     -1.59591067	      0.00000000
      1.75800000	    -80.41137371	    723.73855239	     20.54188838	      0.17335650	     -0.00000000	     -0.02559260	     -0.00000000	     -0.61618443	      0.00000000	      0.00000443	      0.00171488	      0.00035064	     -0.15142861	      0.00000000	      0.22689412	     -0.00000000	     -1.59569643	      0.00000000
      1.75900000	    -80.34035372	    723.42292841	     20.79918130	      0.17330756	     -0.00000000	     -0.02606380	     -0.00000000	     -0.63076568	      0.00000000	      0.00000597	      0.00205506	      0.00042619	     -0.15135690	      0.00000000	      0.22731225	     -0.00000000	     -1.59548380	      0.00000000
      1.76000000	    -80.26974060	    723.09189864	     21.05452838	      0.17325877	     -0.00000000	     -0.02653420	     -0.00000000	     -0.64476733	      0.00000000	      0.00000797	      0.00245833	      0.00051697	     -0.15128524	      0.00000000	      0.22773043	     -0.00000000	     -1.59527305	      0.00000000
      1.76100000	    -80.19944546	    722.74564607	     21.30788166	      0.17321015	     -0.00000000	     -0.02700385	     -0.00000000	     -0.65820924	      0.00000000	      0.00001056	      0.00293551	      0.00062581	     -0.15121366	      0.00000000	      0.22814869	     -0.00000000	     -1.59506446	      0.00000000
      1.76200000	    -80.12936435	    722.38435330	     21.55920469	      0.17316172	     -0.00000000	     -0.02747284	     -0.00000000	     -0.67111617	      0.00000000	      0.00001387	      0.00349911	      0.00075604	     -0.15114215	      0.00000000	      0.22856703	     -0.00000000	     -1.59485833	      0.00000000
      1.76300000	    -80.05938031	    722.00820193	     21.80847212	      0.17311350	     -0.00000000	     -0.02794123	     -0.00000000	     -0.68351715	      0.00000000	      0.00001809	      0.00416352	      0.00091152	     -0.15107073	      0.00000000	      0.22898545	     -0.00000000	     -1.59465502	      0.00000000
      1.76400000	    -79.98936560	    721.61737205	     22.05566923	      0.17306551	     -0.00000000	     -0.02840914	     -0.00000000	     -0.69544487	      0.00000000	      0.00002345	      0.00494536	      0.00109677	     -0.15099942	      0.00000000	      0.22940399	     -0.00000000	     -1.59445494	      0.00000000
